%TF.GenerationSoftware,KiCad,Pcbnew,(6.99.0-1006-g2560c8f31b)*%
%TF.CreationDate,2022-03-06T10:16:36+01:00*%
%TF.ProjectId,freeDSP-aurora-expansion-port-extender,66726565-4453-4502-9d61-75726f72612d,rev?*%
%TF.SameCoordinates,Original*%
%TF.FileFunction,Legend,Top*%
%TF.FilePolarity,Positive*%
%FSLAX46Y46*%
G04 Gerber Fmt 4.6, Leading zero omitted, Abs format (unit mm)*
G04 Created by KiCad (PCBNEW (6.99.0-1006-g2560c8f31b)) date 2022-03-06 10:16:36*
%MOMM*%
%LPD*%
G01*
G04 APERTURE LIST*
%ADD10C,0.040000*%
%ADD11C,0.050000*%
%ADD12C,0.060000*%
%ADD13C,0.150000*%
%ADD14C,0.120000*%
G04 APERTURE END LIST*
D10*
X141525857Y-78561114D02*
X141354428Y-78561114D01*
X141440143Y-78561114D02*
X141440143Y-78261114D01*
X141440143Y-78261114D02*
X141411571Y-78303971D01*
X141411571Y-78303971D02*
X141383000Y-78332542D01*
X141383000Y-78332542D02*
X141354428Y-78346828D01*
X141625857Y-78261114D02*
X141811571Y-78261114D01*
X141811571Y-78261114D02*
X141711571Y-78375400D01*
X141711571Y-78375400D02*
X141754428Y-78375400D01*
X141754428Y-78375400D02*
X141783000Y-78389685D01*
X141783000Y-78389685D02*
X141797285Y-78403971D01*
X141797285Y-78403971D02*
X141811571Y-78432542D01*
X141811571Y-78432542D02*
X141811571Y-78503971D01*
X141811571Y-78503971D02*
X141797285Y-78532542D01*
X141797285Y-78532542D02*
X141783000Y-78546828D01*
X141783000Y-78546828D02*
X141754428Y-78561114D01*
X141754428Y-78561114D02*
X141668714Y-78561114D01*
X141668714Y-78561114D02*
X141640142Y-78546828D01*
X141640142Y-78546828D02*
X141625857Y-78532542D01*
X141225857Y-79032828D02*
X141268715Y-79047114D01*
X141268715Y-79047114D02*
X141340143Y-79047114D01*
X141340143Y-79047114D02*
X141368715Y-79032828D01*
X141368715Y-79032828D02*
X141383000Y-79018542D01*
X141383000Y-79018542D02*
X141397286Y-78989971D01*
X141397286Y-78989971D02*
X141397286Y-78961400D01*
X141397286Y-78961400D02*
X141383000Y-78932828D01*
X141383000Y-78932828D02*
X141368715Y-78918542D01*
X141368715Y-78918542D02*
X141340143Y-78904257D01*
X141340143Y-78904257D02*
X141283000Y-78889971D01*
X141283000Y-78889971D02*
X141254429Y-78875685D01*
X141254429Y-78875685D02*
X141240143Y-78861400D01*
X141240143Y-78861400D02*
X141225857Y-78832828D01*
X141225857Y-78832828D02*
X141225857Y-78804257D01*
X141225857Y-78804257D02*
X141240143Y-78775685D01*
X141240143Y-78775685D02*
X141254429Y-78761400D01*
X141254429Y-78761400D02*
X141283000Y-78747114D01*
X141283000Y-78747114D02*
X141354429Y-78747114D01*
X141354429Y-78747114D02*
X141397286Y-78761400D01*
X141697286Y-79018542D02*
X141683000Y-79032828D01*
X141683000Y-79032828D02*
X141640143Y-79047114D01*
X141640143Y-79047114D02*
X141611571Y-79047114D01*
X141611571Y-79047114D02*
X141568714Y-79032828D01*
X141568714Y-79032828D02*
X141540143Y-79004257D01*
X141540143Y-79004257D02*
X141525857Y-78975685D01*
X141525857Y-78975685D02*
X141511571Y-78918542D01*
X141511571Y-78918542D02*
X141511571Y-78875685D01*
X141511571Y-78875685D02*
X141525857Y-78818542D01*
X141525857Y-78818542D02*
X141540143Y-78789971D01*
X141540143Y-78789971D02*
X141568714Y-78761400D01*
X141568714Y-78761400D02*
X141611571Y-78747114D01*
X141611571Y-78747114D02*
X141640143Y-78747114D01*
X141640143Y-78747114D02*
X141683000Y-78761400D01*
X141683000Y-78761400D02*
X141697286Y-78775685D01*
X141968714Y-79047114D02*
X141825857Y-79047114D01*
X141825857Y-79047114D02*
X141825857Y-78747114D01*
X141795714Y-93928114D02*
X141624285Y-93928114D01*
X141710000Y-93928114D02*
X141710000Y-93628114D01*
X141710000Y-93628114D02*
X141681428Y-93670971D01*
X141681428Y-93670971D02*
X141652857Y-93699542D01*
X141652857Y-93699542D02*
X141624285Y-93713828D01*
X141181428Y-94299828D02*
X141410000Y-94299828D01*
X141295714Y-94414114D02*
X141295714Y-94185542D01*
X141710000Y-94414114D02*
X141538571Y-94414114D01*
X141624286Y-94414114D02*
X141624286Y-94114114D01*
X141624286Y-94114114D02*
X141595714Y-94156971D01*
X141595714Y-94156971D02*
X141567143Y-94185542D01*
X141567143Y-94185542D02*
X141538571Y-94199828D01*
X141824285Y-94142685D02*
X141838571Y-94128400D01*
X141838571Y-94128400D02*
X141867143Y-94114114D01*
X141867143Y-94114114D02*
X141938571Y-94114114D01*
X141938571Y-94114114D02*
X141967143Y-94128400D01*
X141967143Y-94128400D02*
X141981428Y-94142685D01*
X141981428Y-94142685D02*
X141995714Y-94171257D01*
X141995714Y-94171257D02*
X141995714Y-94199828D01*
X141995714Y-94199828D02*
X141981428Y-94242685D01*
X141981428Y-94242685D02*
X141810000Y-94414114D01*
X141810000Y-94414114D02*
X141995714Y-94414114D01*
X142081428Y-94114114D02*
X142181428Y-94414114D01*
X142181428Y-94414114D02*
X142281428Y-94114114D01*
X141525857Y-76021114D02*
X141354428Y-76021114D01*
X141440143Y-76021114D02*
X141440143Y-75721114D01*
X141440143Y-75721114D02*
X141411571Y-75763971D01*
X141411571Y-75763971D02*
X141383000Y-75792542D01*
X141383000Y-75792542D02*
X141354428Y-75806828D01*
X141797285Y-75721114D02*
X141654428Y-75721114D01*
X141654428Y-75721114D02*
X141640142Y-75863971D01*
X141640142Y-75863971D02*
X141654428Y-75849685D01*
X141654428Y-75849685D02*
X141683000Y-75835400D01*
X141683000Y-75835400D02*
X141754428Y-75835400D01*
X141754428Y-75835400D02*
X141783000Y-75849685D01*
X141783000Y-75849685D02*
X141797285Y-75863971D01*
X141797285Y-75863971D02*
X141811571Y-75892542D01*
X141811571Y-75892542D02*
X141811571Y-75963971D01*
X141811571Y-75963971D02*
X141797285Y-75992542D01*
X141797285Y-75992542D02*
X141783000Y-76006828D01*
X141783000Y-76006828D02*
X141754428Y-76021114D01*
X141754428Y-76021114D02*
X141683000Y-76021114D01*
X141683000Y-76021114D02*
X141654428Y-76006828D01*
X141654428Y-76006828D02*
X141640142Y-75992542D01*
X141061571Y-76507114D02*
X141061571Y-76207114D01*
X141061571Y-76207114D02*
X141161571Y-76421400D01*
X141161571Y-76421400D02*
X141261571Y-76207114D01*
X141261571Y-76207114D02*
X141261571Y-76507114D01*
X141575857Y-76478542D02*
X141561571Y-76492828D01*
X141561571Y-76492828D02*
X141518714Y-76507114D01*
X141518714Y-76507114D02*
X141490142Y-76507114D01*
X141490142Y-76507114D02*
X141447285Y-76492828D01*
X141447285Y-76492828D02*
X141418714Y-76464257D01*
X141418714Y-76464257D02*
X141404428Y-76435685D01*
X141404428Y-76435685D02*
X141390142Y-76378542D01*
X141390142Y-76378542D02*
X141390142Y-76335685D01*
X141390142Y-76335685D02*
X141404428Y-76278542D01*
X141404428Y-76278542D02*
X141418714Y-76249971D01*
X141418714Y-76249971D02*
X141447285Y-76221400D01*
X141447285Y-76221400D02*
X141490142Y-76207114D01*
X141490142Y-76207114D02*
X141518714Y-76207114D01*
X141518714Y-76207114D02*
X141561571Y-76221400D01*
X141561571Y-76221400D02*
X141575857Y-76235685D01*
X141847285Y-76507114D02*
X141704428Y-76507114D01*
X141704428Y-76507114D02*
X141704428Y-76207114D01*
X141947285Y-76507114D02*
X141947285Y-76207114D01*
X142118714Y-76507114D02*
X141990142Y-76335685D01*
X142118714Y-76207114D02*
X141947285Y-76378542D01*
X141551257Y-96341114D02*
X141379828Y-96341114D01*
X141465543Y-96341114D02*
X141465543Y-96041114D01*
X141465543Y-96041114D02*
X141436971Y-96083971D01*
X141436971Y-96083971D02*
X141408400Y-96112542D01*
X141408400Y-96112542D02*
X141379828Y-96126828D01*
X141808400Y-96041114D02*
X141751257Y-96041114D01*
X141751257Y-96041114D02*
X141722685Y-96055400D01*
X141722685Y-96055400D02*
X141708400Y-96069685D01*
X141708400Y-96069685D02*
X141679828Y-96112542D01*
X141679828Y-96112542D02*
X141665542Y-96169685D01*
X141665542Y-96169685D02*
X141665542Y-96283971D01*
X141665542Y-96283971D02*
X141679828Y-96312542D01*
X141679828Y-96312542D02*
X141694114Y-96326828D01*
X141694114Y-96326828D02*
X141722685Y-96341114D01*
X141722685Y-96341114D02*
X141779828Y-96341114D01*
X141779828Y-96341114D02*
X141808400Y-96326828D01*
X141808400Y-96326828D02*
X141822685Y-96312542D01*
X141822685Y-96312542D02*
X141836971Y-96283971D01*
X141836971Y-96283971D02*
X141836971Y-96212542D01*
X141836971Y-96212542D02*
X141822685Y-96183971D01*
X141822685Y-96183971D02*
X141808400Y-96169685D01*
X141808400Y-96169685D02*
X141779828Y-96155400D01*
X141779828Y-96155400D02*
X141722685Y-96155400D01*
X141722685Y-96155400D02*
X141694114Y-96169685D01*
X141694114Y-96169685D02*
X141679828Y-96183971D01*
X141679828Y-96183971D02*
X141665542Y-96212542D01*
X141379828Y-96541400D02*
X141351257Y-96527114D01*
X141351257Y-96527114D02*
X141308399Y-96527114D01*
X141308399Y-96527114D02*
X141265542Y-96541400D01*
X141265542Y-96541400D02*
X141236971Y-96569971D01*
X141236971Y-96569971D02*
X141222685Y-96598542D01*
X141222685Y-96598542D02*
X141208399Y-96655685D01*
X141208399Y-96655685D02*
X141208399Y-96698542D01*
X141208399Y-96698542D02*
X141222685Y-96755685D01*
X141222685Y-96755685D02*
X141236971Y-96784257D01*
X141236971Y-96784257D02*
X141265542Y-96812828D01*
X141265542Y-96812828D02*
X141308399Y-96827114D01*
X141308399Y-96827114D02*
X141336971Y-96827114D01*
X141336971Y-96827114D02*
X141379828Y-96812828D01*
X141379828Y-96812828D02*
X141394114Y-96798542D01*
X141394114Y-96798542D02*
X141394114Y-96698542D01*
X141394114Y-96698542D02*
X141336971Y-96698542D01*
X141522685Y-96827114D02*
X141522685Y-96527114D01*
X141522685Y-96527114D02*
X141694114Y-96827114D01*
X141694114Y-96827114D02*
X141694114Y-96527114D01*
X141836971Y-96827114D02*
X141836971Y-96527114D01*
X141836971Y-96527114D02*
X141908400Y-96527114D01*
X141908400Y-96527114D02*
X141951257Y-96541400D01*
X141951257Y-96541400D02*
X141979828Y-96569971D01*
X141979828Y-96569971D02*
X141994114Y-96598542D01*
X141994114Y-96598542D02*
X142008400Y-96655685D01*
X142008400Y-96655685D02*
X142008400Y-96698542D01*
X142008400Y-96698542D02*
X141994114Y-96755685D01*
X141994114Y-96755685D02*
X141979828Y-96784257D01*
X141979828Y-96784257D02*
X141951257Y-96812828D01*
X141951257Y-96812828D02*
X141908400Y-96827114D01*
X141908400Y-96827114D02*
X141836971Y-96827114D01*
X141652857Y-81101114D02*
X141481428Y-81101114D01*
X141567143Y-81101114D02*
X141567143Y-80801114D01*
X141567143Y-80801114D02*
X141538571Y-80843971D01*
X141538571Y-80843971D02*
X141510000Y-80872542D01*
X141510000Y-80872542D02*
X141481428Y-80886828D01*
X141938571Y-81101114D02*
X141767142Y-81101114D01*
X141852857Y-81101114D02*
X141852857Y-80801114D01*
X141852857Y-80801114D02*
X141824285Y-80843971D01*
X141824285Y-80843971D02*
X141795714Y-80872542D01*
X141795714Y-80872542D02*
X141767142Y-80886828D01*
X141345714Y-81572828D02*
X141388572Y-81587114D01*
X141388572Y-81587114D02*
X141460000Y-81587114D01*
X141460000Y-81587114D02*
X141488572Y-81572828D01*
X141488572Y-81572828D02*
X141502857Y-81558542D01*
X141502857Y-81558542D02*
X141517143Y-81529971D01*
X141517143Y-81529971D02*
X141517143Y-81501400D01*
X141517143Y-81501400D02*
X141502857Y-81472828D01*
X141502857Y-81472828D02*
X141488572Y-81458542D01*
X141488572Y-81458542D02*
X141460000Y-81444257D01*
X141460000Y-81444257D02*
X141402857Y-81429971D01*
X141402857Y-81429971D02*
X141374286Y-81415685D01*
X141374286Y-81415685D02*
X141360000Y-81401400D01*
X141360000Y-81401400D02*
X141345714Y-81372828D01*
X141345714Y-81372828D02*
X141345714Y-81344257D01*
X141345714Y-81344257D02*
X141360000Y-81315685D01*
X141360000Y-81315685D02*
X141374286Y-81301400D01*
X141374286Y-81301400D02*
X141402857Y-81287114D01*
X141402857Y-81287114D02*
X141474286Y-81287114D01*
X141474286Y-81287114D02*
X141517143Y-81301400D01*
X141645714Y-81587114D02*
X141645714Y-81287114D01*
X141645714Y-81287114D02*
X141717143Y-81287114D01*
X141717143Y-81287114D02*
X141760000Y-81301400D01*
X141760000Y-81301400D02*
X141788571Y-81329971D01*
X141788571Y-81329971D02*
X141802857Y-81358542D01*
X141802857Y-81358542D02*
X141817143Y-81415685D01*
X141817143Y-81415685D02*
X141817143Y-81458542D01*
X141817143Y-81458542D02*
X141802857Y-81515685D01*
X141802857Y-81515685D02*
X141788571Y-81544257D01*
X141788571Y-81544257D02*
X141760000Y-81572828D01*
X141760000Y-81572828D02*
X141717143Y-81587114D01*
X141717143Y-81587114D02*
X141645714Y-81587114D01*
X141931428Y-81501400D02*
X142074286Y-81501400D01*
X141902857Y-81587114D02*
X142002857Y-81287114D01*
X142002857Y-81287114D02*
X142102857Y-81587114D01*
X141781428Y-88548114D02*
X141638571Y-88548114D01*
X141638571Y-88548114D02*
X141624285Y-88690971D01*
X141624285Y-88690971D02*
X141638571Y-88676685D01*
X141638571Y-88676685D02*
X141667143Y-88662400D01*
X141667143Y-88662400D02*
X141738571Y-88662400D01*
X141738571Y-88662400D02*
X141767143Y-88676685D01*
X141767143Y-88676685D02*
X141781428Y-88690971D01*
X141781428Y-88690971D02*
X141795714Y-88719542D01*
X141795714Y-88719542D02*
X141795714Y-88790971D01*
X141795714Y-88790971D02*
X141781428Y-88819542D01*
X141781428Y-88819542D02*
X141767143Y-88833828D01*
X141767143Y-88833828D02*
X141738571Y-88848114D01*
X141738571Y-88848114D02*
X141667143Y-88848114D01*
X141667143Y-88848114D02*
X141638571Y-88833828D01*
X141638571Y-88833828D02*
X141624285Y-88819542D01*
X141088571Y-89334114D02*
X141088571Y-89034114D01*
X141088571Y-89034114D02*
X141188571Y-89248400D01*
X141188571Y-89248400D02*
X141288571Y-89034114D01*
X141288571Y-89034114D02*
X141288571Y-89334114D01*
X141431428Y-89334114D02*
X141431428Y-89034114D01*
X141431428Y-89034114D02*
X141502857Y-89034114D01*
X141502857Y-89034114D02*
X141545714Y-89048400D01*
X141545714Y-89048400D02*
X141574285Y-89076971D01*
X141574285Y-89076971D02*
X141588571Y-89105542D01*
X141588571Y-89105542D02*
X141602857Y-89162685D01*
X141602857Y-89162685D02*
X141602857Y-89205542D01*
X141602857Y-89205542D02*
X141588571Y-89262685D01*
X141588571Y-89262685D02*
X141574285Y-89291257D01*
X141574285Y-89291257D02*
X141545714Y-89319828D01*
X141545714Y-89319828D02*
X141502857Y-89334114D01*
X141502857Y-89334114D02*
X141431428Y-89334114D01*
X141788571Y-89034114D02*
X141845714Y-89034114D01*
X141845714Y-89034114D02*
X141874285Y-89048400D01*
X141874285Y-89048400D02*
X141902857Y-89076971D01*
X141902857Y-89076971D02*
X141917142Y-89134114D01*
X141917142Y-89134114D02*
X141917142Y-89234114D01*
X141917142Y-89234114D02*
X141902857Y-89291257D01*
X141902857Y-89291257D02*
X141874285Y-89319828D01*
X141874285Y-89319828D02*
X141845714Y-89334114D01*
X141845714Y-89334114D02*
X141788571Y-89334114D01*
X141788571Y-89334114D02*
X141760000Y-89319828D01*
X141760000Y-89319828D02*
X141731428Y-89291257D01*
X141731428Y-89291257D02*
X141717142Y-89234114D01*
X141717142Y-89234114D02*
X141717142Y-89134114D01*
X141717142Y-89134114D02*
X141731428Y-89076971D01*
X141731428Y-89076971D02*
X141760000Y-89048400D01*
X141760000Y-89048400D02*
X141788571Y-89034114D01*
X142045714Y-89305542D02*
X142060000Y-89319828D01*
X142060000Y-89319828D02*
X142045714Y-89334114D01*
X142045714Y-89334114D02*
X142031428Y-89319828D01*
X142031428Y-89319828D02*
X142045714Y-89305542D01*
X142045714Y-89305542D02*
X142045714Y-89334114D01*
X142045714Y-89148400D02*
X142060000Y-89162685D01*
X142060000Y-89162685D02*
X142045714Y-89176971D01*
X142045714Y-89176971D02*
X142031428Y-89162685D01*
X142031428Y-89162685D02*
X142045714Y-89148400D01*
X142045714Y-89148400D02*
X142045714Y-89176971D01*
X142160000Y-89034114D02*
X142345714Y-89034114D01*
X142345714Y-89034114D02*
X142245714Y-89148400D01*
X142245714Y-89148400D02*
X142288571Y-89148400D01*
X142288571Y-89148400D02*
X142317143Y-89162685D01*
X142317143Y-89162685D02*
X142331428Y-89176971D01*
X142331428Y-89176971D02*
X142345714Y-89205542D01*
X142345714Y-89205542D02*
X142345714Y-89276971D01*
X142345714Y-89276971D02*
X142331428Y-89305542D01*
X142331428Y-89305542D02*
X142317143Y-89319828D01*
X142317143Y-89319828D02*
X142288571Y-89334114D01*
X142288571Y-89334114D02*
X142202857Y-89334114D01*
X142202857Y-89334114D02*
X142174285Y-89319828D01*
X142174285Y-89319828D02*
X142160000Y-89305542D01*
X141610000Y-85881114D02*
X141810000Y-85881114D01*
X141810000Y-85881114D02*
X141681428Y-86181114D01*
X141095714Y-86509971D02*
X141138571Y-86524257D01*
X141138571Y-86524257D02*
X141152857Y-86538542D01*
X141152857Y-86538542D02*
X141167143Y-86567114D01*
X141167143Y-86567114D02*
X141167143Y-86609971D01*
X141167143Y-86609971D02*
X141152857Y-86638542D01*
X141152857Y-86638542D02*
X141138571Y-86652828D01*
X141138571Y-86652828D02*
X141110000Y-86667114D01*
X141110000Y-86667114D02*
X140995714Y-86667114D01*
X140995714Y-86667114D02*
X140995714Y-86367114D01*
X140995714Y-86367114D02*
X141095714Y-86367114D01*
X141095714Y-86367114D02*
X141124286Y-86381400D01*
X141124286Y-86381400D02*
X141138571Y-86395685D01*
X141138571Y-86395685D02*
X141152857Y-86424257D01*
X141152857Y-86424257D02*
X141152857Y-86452828D01*
X141152857Y-86452828D02*
X141138571Y-86481400D01*
X141138571Y-86481400D02*
X141124286Y-86495685D01*
X141124286Y-86495685D02*
X141095714Y-86509971D01*
X141095714Y-86509971D02*
X140995714Y-86509971D01*
X141467143Y-86638542D02*
X141452857Y-86652828D01*
X141452857Y-86652828D02*
X141410000Y-86667114D01*
X141410000Y-86667114D02*
X141381428Y-86667114D01*
X141381428Y-86667114D02*
X141338571Y-86652828D01*
X141338571Y-86652828D02*
X141310000Y-86624257D01*
X141310000Y-86624257D02*
X141295714Y-86595685D01*
X141295714Y-86595685D02*
X141281428Y-86538542D01*
X141281428Y-86538542D02*
X141281428Y-86495685D01*
X141281428Y-86495685D02*
X141295714Y-86438542D01*
X141295714Y-86438542D02*
X141310000Y-86409971D01*
X141310000Y-86409971D02*
X141338571Y-86381400D01*
X141338571Y-86381400D02*
X141381428Y-86367114D01*
X141381428Y-86367114D02*
X141410000Y-86367114D01*
X141410000Y-86367114D02*
X141452857Y-86381400D01*
X141452857Y-86381400D02*
X141467143Y-86395685D01*
X141738571Y-86667114D02*
X141595714Y-86667114D01*
X141595714Y-86667114D02*
X141595714Y-86367114D01*
X141838571Y-86667114D02*
X141838571Y-86367114D01*
X142010000Y-86667114D02*
X141881428Y-86495685D01*
X142010000Y-86367114D02*
X141838571Y-86538542D01*
X142138571Y-86638542D02*
X142152857Y-86652828D01*
X142152857Y-86652828D02*
X142138571Y-86667114D01*
X142138571Y-86667114D02*
X142124285Y-86652828D01*
X142124285Y-86652828D02*
X142138571Y-86638542D01*
X142138571Y-86638542D02*
X142138571Y-86667114D01*
X142138571Y-86481400D02*
X142152857Y-86495685D01*
X142152857Y-86495685D02*
X142138571Y-86509971D01*
X142138571Y-86509971D02*
X142124285Y-86495685D01*
X142124285Y-86495685D02*
X142138571Y-86481400D01*
X142138571Y-86481400D02*
X142138571Y-86509971D01*
X142252857Y-86367114D02*
X142438571Y-86367114D01*
X142438571Y-86367114D02*
X142338571Y-86481400D01*
X142338571Y-86481400D02*
X142381428Y-86481400D01*
X142381428Y-86481400D02*
X142410000Y-86495685D01*
X142410000Y-86495685D02*
X142424285Y-86509971D01*
X142424285Y-86509971D02*
X142438571Y-86538542D01*
X142438571Y-86538542D02*
X142438571Y-86609971D01*
X142438571Y-86609971D02*
X142424285Y-86638542D01*
X142424285Y-86638542D02*
X142410000Y-86652828D01*
X142410000Y-86652828D02*
X142381428Y-86667114D01*
X142381428Y-86667114D02*
X142295714Y-86667114D01*
X142295714Y-86667114D02*
X142267142Y-86652828D01*
X142267142Y-86652828D02*
X142252857Y-86638542D01*
X141197285Y-98625428D02*
X141425857Y-98625428D01*
X141311571Y-98739714D02*
X141311571Y-98511142D01*
X141540143Y-98439714D02*
X141725857Y-98439714D01*
X141725857Y-98439714D02*
X141625857Y-98554000D01*
X141625857Y-98554000D02*
X141668714Y-98554000D01*
X141668714Y-98554000D02*
X141697286Y-98568285D01*
X141697286Y-98568285D02*
X141711571Y-98582571D01*
X141711571Y-98582571D02*
X141725857Y-98611142D01*
X141725857Y-98611142D02*
X141725857Y-98682571D01*
X141725857Y-98682571D02*
X141711571Y-98711142D01*
X141711571Y-98711142D02*
X141697286Y-98725428D01*
X141697286Y-98725428D02*
X141668714Y-98739714D01*
X141668714Y-98739714D02*
X141583000Y-98739714D01*
X141583000Y-98739714D02*
X141554428Y-98725428D01*
X141554428Y-98725428D02*
X141540143Y-98711142D01*
X141811571Y-98439714D02*
X141911571Y-98739714D01*
X141911571Y-98739714D02*
X142011571Y-98439714D01*
X141468714Y-99225714D02*
X141440143Y-99211428D01*
X141440143Y-99211428D02*
X141425857Y-99197142D01*
X141425857Y-99197142D02*
X141411571Y-99168571D01*
X141411571Y-99168571D02*
X141411571Y-99082857D01*
X141411571Y-99082857D02*
X141425857Y-99054285D01*
X141425857Y-99054285D02*
X141440143Y-99040000D01*
X141440143Y-99040000D02*
X141468714Y-99025714D01*
X141468714Y-99025714D02*
X141511571Y-99025714D01*
X141511571Y-99025714D02*
X141540143Y-99040000D01*
X141540143Y-99040000D02*
X141554429Y-99054285D01*
X141554429Y-99054285D02*
X141568714Y-99082857D01*
X141568714Y-99082857D02*
X141568714Y-99168571D01*
X141568714Y-99168571D02*
X141554429Y-99197142D01*
X141554429Y-99197142D02*
X141540143Y-99211428D01*
X141540143Y-99211428D02*
X141511571Y-99225714D01*
X141511571Y-99225714D02*
X141468714Y-99225714D01*
X141697286Y-99225714D02*
X141697286Y-99025714D01*
X141697286Y-99082857D02*
X141711572Y-99054285D01*
X141711572Y-99054285D02*
X141725858Y-99040000D01*
X141725858Y-99040000D02*
X141754429Y-99025714D01*
X141754429Y-99025714D02*
X141783000Y-99025714D01*
X141197285Y-99597428D02*
X141425857Y-99597428D01*
X141311571Y-99711714D02*
X141311571Y-99483142D01*
X141711571Y-99411714D02*
X141568714Y-99411714D01*
X141568714Y-99411714D02*
X141554428Y-99554571D01*
X141554428Y-99554571D02*
X141568714Y-99540285D01*
X141568714Y-99540285D02*
X141597286Y-99526000D01*
X141597286Y-99526000D02*
X141668714Y-99526000D01*
X141668714Y-99526000D02*
X141697286Y-99540285D01*
X141697286Y-99540285D02*
X141711571Y-99554571D01*
X141711571Y-99554571D02*
X141725857Y-99583142D01*
X141725857Y-99583142D02*
X141725857Y-99654571D01*
X141725857Y-99654571D02*
X141711571Y-99683142D01*
X141711571Y-99683142D02*
X141697286Y-99697428D01*
X141697286Y-99697428D02*
X141668714Y-99711714D01*
X141668714Y-99711714D02*
X141597286Y-99711714D01*
X141597286Y-99711714D02*
X141568714Y-99697428D01*
X141568714Y-99697428D02*
X141554428Y-99683142D01*
X141811571Y-99411714D02*
X141911571Y-99711714D01*
X141911571Y-99711714D02*
X142011571Y-99411714D01*
D11*
X149901504Y-84900952D02*
X149977695Y-84900952D01*
X149977695Y-84900952D02*
X150015790Y-84920000D01*
X150015790Y-84920000D02*
X150053885Y-84958095D01*
X150053885Y-84958095D02*
X150072933Y-85034285D01*
X150072933Y-85034285D02*
X150072933Y-85167619D01*
X150072933Y-85167619D02*
X150053885Y-85243809D01*
X150053885Y-85243809D02*
X150015790Y-85281904D01*
X150015790Y-85281904D02*
X149977695Y-85300952D01*
X149977695Y-85300952D02*
X149901504Y-85300952D01*
X149901504Y-85300952D02*
X149863409Y-85281904D01*
X149863409Y-85281904D02*
X149825314Y-85243809D01*
X149825314Y-85243809D02*
X149806266Y-85167619D01*
X149806266Y-85167619D02*
X149806266Y-85034285D01*
X149806266Y-85034285D02*
X149825314Y-84958095D01*
X149825314Y-84958095D02*
X149863409Y-84920000D01*
X149863409Y-84920000D02*
X149901504Y-84900952D01*
D10*
X147344448Y-99817685D02*
X147177781Y-99817685D01*
X147177781Y-100079590D02*
X147177781Y-99579590D01*
X147177781Y-99579590D02*
X147415876Y-99579590D01*
X147606352Y-100079590D02*
X147606352Y-99746257D01*
X147606352Y-99841495D02*
X147630162Y-99793876D01*
X147630162Y-99793876D02*
X147653971Y-99770066D01*
X147653971Y-99770066D02*
X147701590Y-99746257D01*
X147701590Y-99746257D02*
X147749209Y-99746257D01*
X148106352Y-100055780D02*
X148058733Y-100079590D01*
X148058733Y-100079590D02*
X147963495Y-100079590D01*
X147963495Y-100079590D02*
X147915876Y-100055780D01*
X147915876Y-100055780D02*
X147892067Y-100008161D01*
X147892067Y-100008161D02*
X147892067Y-99817685D01*
X147892067Y-99817685D02*
X147915876Y-99770066D01*
X147915876Y-99770066D02*
X147963495Y-99746257D01*
X147963495Y-99746257D02*
X148058733Y-99746257D01*
X148058733Y-99746257D02*
X148106352Y-99770066D01*
X148106352Y-99770066D02*
X148130162Y-99817685D01*
X148130162Y-99817685D02*
X148130162Y-99865304D01*
X148130162Y-99865304D02*
X147892067Y-99912923D01*
X148534923Y-100055780D02*
X148487304Y-100079590D01*
X148487304Y-100079590D02*
X148392066Y-100079590D01*
X148392066Y-100079590D02*
X148344447Y-100055780D01*
X148344447Y-100055780D02*
X148320638Y-100008161D01*
X148320638Y-100008161D02*
X148320638Y-99817685D01*
X148320638Y-99817685D02*
X148344447Y-99770066D01*
X148344447Y-99770066D02*
X148392066Y-99746257D01*
X148392066Y-99746257D02*
X148487304Y-99746257D01*
X148487304Y-99746257D02*
X148534923Y-99770066D01*
X148534923Y-99770066D02*
X148558733Y-99817685D01*
X148558733Y-99817685D02*
X148558733Y-99865304D01*
X148558733Y-99865304D02*
X148320638Y-99912923D01*
X148773018Y-100079590D02*
X148773018Y-99579590D01*
X148773018Y-99579590D02*
X148892066Y-99579590D01*
X148892066Y-99579590D02*
X148963494Y-99603400D01*
X148963494Y-99603400D02*
X149011113Y-99651019D01*
X149011113Y-99651019D02*
X149034923Y-99698638D01*
X149034923Y-99698638D02*
X149058732Y-99793876D01*
X149058732Y-99793876D02*
X149058732Y-99865304D01*
X149058732Y-99865304D02*
X149034923Y-99960542D01*
X149034923Y-99960542D02*
X149011113Y-100008161D01*
X149011113Y-100008161D02*
X148963494Y-100055780D01*
X148963494Y-100055780D02*
X148892066Y-100079590D01*
X148892066Y-100079590D02*
X148773018Y-100079590D01*
X149249209Y-100055780D02*
X149320637Y-100079590D01*
X149320637Y-100079590D02*
X149439685Y-100079590D01*
X149439685Y-100079590D02*
X149487304Y-100055780D01*
X149487304Y-100055780D02*
X149511113Y-100031971D01*
X149511113Y-100031971D02*
X149534923Y-99984352D01*
X149534923Y-99984352D02*
X149534923Y-99936733D01*
X149534923Y-99936733D02*
X149511113Y-99889114D01*
X149511113Y-99889114D02*
X149487304Y-99865304D01*
X149487304Y-99865304D02*
X149439685Y-99841495D01*
X149439685Y-99841495D02*
X149344447Y-99817685D01*
X149344447Y-99817685D02*
X149296828Y-99793876D01*
X149296828Y-99793876D02*
X149273018Y-99770066D01*
X149273018Y-99770066D02*
X149249209Y-99722447D01*
X149249209Y-99722447D02*
X149249209Y-99674828D01*
X149249209Y-99674828D02*
X149273018Y-99627209D01*
X149273018Y-99627209D02*
X149296828Y-99603400D01*
X149296828Y-99603400D02*
X149344447Y-99579590D01*
X149344447Y-99579590D02*
X149463494Y-99579590D01*
X149463494Y-99579590D02*
X149534923Y-99603400D01*
X149749208Y-100079590D02*
X149749208Y-99579590D01*
X149749208Y-99579590D02*
X149939684Y-99579590D01*
X149939684Y-99579590D02*
X149987303Y-99603400D01*
X149987303Y-99603400D02*
X150011113Y-99627209D01*
X150011113Y-99627209D02*
X150034922Y-99674828D01*
X150034922Y-99674828D02*
X150034922Y-99746257D01*
X150034922Y-99746257D02*
X150011113Y-99793876D01*
X150011113Y-99793876D02*
X149987303Y-99817685D01*
X149987303Y-99817685D02*
X149939684Y-99841495D01*
X149939684Y-99841495D02*
X149749208Y-99841495D01*
X150549208Y-99817685D02*
X150715875Y-99817685D01*
X150787303Y-100079590D02*
X150549208Y-100079590D01*
X150549208Y-100079590D02*
X150549208Y-99579590D01*
X150549208Y-99579590D02*
X150787303Y-99579590D01*
X150953970Y-100079590D02*
X151215875Y-99746257D01*
X150953970Y-99746257D02*
X151215875Y-100079590D01*
X151406351Y-99746257D02*
X151406351Y-100246257D01*
X151406351Y-99770066D02*
X151453970Y-99746257D01*
X151453970Y-99746257D02*
X151549208Y-99746257D01*
X151549208Y-99746257D02*
X151596827Y-99770066D01*
X151596827Y-99770066D02*
X151620637Y-99793876D01*
X151620637Y-99793876D02*
X151644446Y-99841495D01*
X151644446Y-99841495D02*
X151644446Y-99984352D01*
X151644446Y-99984352D02*
X151620637Y-100031971D01*
X151620637Y-100031971D02*
X151596827Y-100055780D01*
X151596827Y-100055780D02*
X151549208Y-100079590D01*
X151549208Y-100079590D02*
X151453970Y-100079590D01*
X151453970Y-100079590D02*
X151406351Y-100055780D01*
X152073018Y-100079590D02*
X152073018Y-99817685D01*
X152073018Y-99817685D02*
X152049208Y-99770066D01*
X152049208Y-99770066D02*
X152001589Y-99746257D01*
X152001589Y-99746257D02*
X151906351Y-99746257D01*
X151906351Y-99746257D02*
X151858732Y-99770066D01*
X152073018Y-100055780D02*
X152025399Y-100079590D01*
X152025399Y-100079590D02*
X151906351Y-100079590D01*
X151906351Y-100079590D02*
X151858732Y-100055780D01*
X151858732Y-100055780D02*
X151834923Y-100008161D01*
X151834923Y-100008161D02*
X151834923Y-99960542D01*
X151834923Y-99960542D02*
X151858732Y-99912923D01*
X151858732Y-99912923D02*
X151906351Y-99889114D01*
X151906351Y-99889114D02*
X152025399Y-99889114D01*
X152025399Y-99889114D02*
X152073018Y-99865304D01*
X152311113Y-99746257D02*
X152311113Y-100079590D01*
X152311113Y-99793876D02*
X152334923Y-99770066D01*
X152334923Y-99770066D02*
X152382542Y-99746257D01*
X152382542Y-99746257D02*
X152453970Y-99746257D01*
X152453970Y-99746257D02*
X152501589Y-99770066D01*
X152501589Y-99770066D02*
X152525399Y-99817685D01*
X152525399Y-99817685D02*
X152525399Y-100079590D01*
X152739685Y-100055780D02*
X152787304Y-100079590D01*
X152787304Y-100079590D02*
X152882542Y-100079590D01*
X152882542Y-100079590D02*
X152930161Y-100055780D01*
X152930161Y-100055780D02*
X152953970Y-100008161D01*
X152953970Y-100008161D02*
X152953970Y-99984352D01*
X152953970Y-99984352D02*
X152930161Y-99936733D01*
X152930161Y-99936733D02*
X152882542Y-99912923D01*
X152882542Y-99912923D02*
X152811113Y-99912923D01*
X152811113Y-99912923D02*
X152763494Y-99889114D01*
X152763494Y-99889114D02*
X152739685Y-99841495D01*
X152739685Y-99841495D02*
X152739685Y-99817685D01*
X152739685Y-99817685D02*
X152763494Y-99770066D01*
X152763494Y-99770066D02*
X152811113Y-99746257D01*
X152811113Y-99746257D02*
X152882542Y-99746257D01*
X152882542Y-99746257D02*
X152930161Y-99770066D01*
X153168256Y-100079590D02*
X153168256Y-99746257D01*
X153168256Y-99579590D02*
X153144447Y-99603400D01*
X153144447Y-99603400D02*
X153168256Y-99627209D01*
X153168256Y-99627209D02*
X153192066Y-99603400D01*
X153192066Y-99603400D02*
X153168256Y-99579590D01*
X153168256Y-99579590D02*
X153168256Y-99627209D01*
X153477780Y-100079590D02*
X153430161Y-100055780D01*
X153430161Y-100055780D02*
X153406351Y-100031971D01*
X153406351Y-100031971D02*
X153382542Y-99984352D01*
X153382542Y-99984352D02*
X153382542Y-99841495D01*
X153382542Y-99841495D02*
X153406351Y-99793876D01*
X153406351Y-99793876D02*
X153430161Y-99770066D01*
X153430161Y-99770066D02*
X153477780Y-99746257D01*
X153477780Y-99746257D02*
X153549208Y-99746257D01*
X153549208Y-99746257D02*
X153596827Y-99770066D01*
X153596827Y-99770066D02*
X153620637Y-99793876D01*
X153620637Y-99793876D02*
X153644446Y-99841495D01*
X153644446Y-99841495D02*
X153644446Y-99984352D01*
X153644446Y-99984352D02*
X153620637Y-100031971D01*
X153620637Y-100031971D02*
X153596827Y-100055780D01*
X153596827Y-100055780D02*
X153549208Y-100079590D01*
X153549208Y-100079590D02*
X153477780Y-100079590D01*
X153858732Y-99746257D02*
X153858732Y-100079590D01*
X153858732Y-99793876D02*
X153882542Y-99770066D01*
X153882542Y-99770066D02*
X153930161Y-99746257D01*
X153930161Y-99746257D02*
X154001589Y-99746257D01*
X154001589Y-99746257D02*
X154049208Y-99770066D01*
X154049208Y-99770066D02*
X154073018Y-99817685D01*
X154073018Y-99817685D02*
X154073018Y-100079590D01*
X148106353Y-100627685D02*
X148273020Y-100627685D01*
X148344448Y-100889590D02*
X148106353Y-100889590D01*
X148106353Y-100889590D02*
X148106353Y-100389590D01*
X148106353Y-100389590D02*
X148344448Y-100389590D01*
X148511115Y-100889590D02*
X148773020Y-100556257D01*
X148511115Y-100556257D02*
X148773020Y-100889590D01*
X148963496Y-100556257D02*
X148963496Y-101056257D01*
X148963496Y-100580066D02*
X149011115Y-100556257D01*
X149011115Y-100556257D02*
X149106353Y-100556257D01*
X149106353Y-100556257D02*
X149153972Y-100580066D01*
X149153972Y-100580066D02*
X149177782Y-100603876D01*
X149177782Y-100603876D02*
X149201591Y-100651495D01*
X149201591Y-100651495D02*
X149201591Y-100794352D01*
X149201591Y-100794352D02*
X149177782Y-100841971D01*
X149177782Y-100841971D02*
X149153972Y-100865780D01*
X149153972Y-100865780D02*
X149106353Y-100889590D01*
X149106353Y-100889590D02*
X149011115Y-100889590D01*
X149011115Y-100889590D02*
X148963496Y-100865780D01*
X149630163Y-100889590D02*
X149630163Y-100627685D01*
X149630163Y-100627685D02*
X149606353Y-100580066D01*
X149606353Y-100580066D02*
X149558734Y-100556257D01*
X149558734Y-100556257D02*
X149463496Y-100556257D01*
X149463496Y-100556257D02*
X149415877Y-100580066D01*
X149630163Y-100865780D02*
X149582544Y-100889590D01*
X149582544Y-100889590D02*
X149463496Y-100889590D01*
X149463496Y-100889590D02*
X149415877Y-100865780D01*
X149415877Y-100865780D02*
X149392068Y-100818161D01*
X149392068Y-100818161D02*
X149392068Y-100770542D01*
X149392068Y-100770542D02*
X149415877Y-100722923D01*
X149415877Y-100722923D02*
X149463496Y-100699114D01*
X149463496Y-100699114D02*
X149582544Y-100699114D01*
X149582544Y-100699114D02*
X149630163Y-100675304D01*
X149868258Y-100556257D02*
X149868258Y-100889590D01*
X149868258Y-100603876D02*
X149892068Y-100580066D01*
X149892068Y-100580066D02*
X149939687Y-100556257D01*
X149939687Y-100556257D02*
X150011115Y-100556257D01*
X150011115Y-100556257D02*
X150058734Y-100580066D01*
X150058734Y-100580066D02*
X150082544Y-100627685D01*
X150082544Y-100627685D02*
X150082544Y-100889590D01*
X150534925Y-100889590D02*
X150534925Y-100389590D01*
X150534925Y-100865780D02*
X150487306Y-100889590D01*
X150487306Y-100889590D02*
X150392068Y-100889590D01*
X150392068Y-100889590D02*
X150344449Y-100865780D01*
X150344449Y-100865780D02*
X150320639Y-100841971D01*
X150320639Y-100841971D02*
X150296830Y-100794352D01*
X150296830Y-100794352D02*
X150296830Y-100651495D01*
X150296830Y-100651495D02*
X150320639Y-100603876D01*
X150320639Y-100603876D02*
X150344449Y-100580066D01*
X150344449Y-100580066D02*
X150392068Y-100556257D01*
X150392068Y-100556257D02*
X150487306Y-100556257D01*
X150487306Y-100556257D02*
X150534925Y-100580066D01*
X150963496Y-100865780D02*
X150915877Y-100889590D01*
X150915877Y-100889590D02*
X150820639Y-100889590D01*
X150820639Y-100889590D02*
X150773020Y-100865780D01*
X150773020Y-100865780D02*
X150749211Y-100818161D01*
X150749211Y-100818161D02*
X150749211Y-100627685D01*
X150749211Y-100627685D02*
X150773020Y-100580066D01*
X150773020Y-100580066D02*
X150820639Y-100556257D01*
X150820639Y-100556257D02*
X150915877Y-100556257D01*
X150915877Y-100556257D02*
X150963496Y-100580066D01*
X150963496Y-100580066D02*
X150987306Y-100627685D01*
X150987306Y-100627685D02*
X150987306Y-100675304D01*
X150987306Y-100675304D02*
X150749211Y-100722923D01*
X151201591Y-100889590D02*
X151201591Y-100556257D01*
X151201591Y-100651495D02*
X151225401Y-100603876D01*
X151225401Y-100603876D02*
X151249210Y-100580066D01*
X151249210Y-100580066D02*
X151296829Y-100556257D01*
X151296829Y-100556257D02*
X151344448Y-100556257D01*
X151763496Y-100556257D02*
X151882544Y-100889590D01*
X151882544Y-100889590D02*
X152001591Y-100556257D01*
X152453972Y-100889590D02*
X152168258Y-100889590D01*
X152311115Y-100889590D02*
X152311115Y-100389590D01*
X152311115Y-100389590D02*
X152263496Y-100461019D01*
X152263496Y-100461019D02*
X152215877Y-100508638D01*
X152215877Y-100508638D02*
X152168258Y-100532447D01*
X152668257Y-100841971D02*
X152692067Y-100865780D01*
X152692067Y-100865780D02*
X152668257Y-100889590D01*
X152668257Y-100889590D02*
X152644448Y-100865780D01*
X152644448Y-100865780D02*
X152668257Y-100841971D01*
X152668257Y-100841971D02*
X152668257Y-100889590D01*
X153001590Y-100389590D02*
X153049209Y-100389590D01*
X153049209Y-100389590D02*
X153096828Y-100413400D01*
X153096828Y-100413400D02*
X153120638Y-100437209D01*
X153120638Y-100437209D02*
X153144447Y-100484828D01*
X153144447Y-100484828D02*
X153168257Y-100580066D01*
X153168257Y-100580066D02*
X153168257Y-100699114D01*
X153168257Y-100699114D02*
X153144447Y-100794352D01*
X153144447Y-100794352D02*
X153120638Y-100841971D01*
X153120638Y-100841971D02*
X153096828Y-100865780D01*
X153096828Y-100865780D02*
X153049209Y-100889590D01*
X153049209Y-100889590D02*
X153001590Y-100889590D01*
X153001590Y-100889590D02*
X152953971Y-100865780D01*
X152953971Y-100865780D02*
X152930162Y-100841971D01*
X152930162Y-100841971D02*
X152906352Y-100794352D01*
X152906352Y-100794352D02*
X152882543Y-100699114D01*
X152882543Y-100699114D02*
X152882543Y-100580066D01*
X152882543Y-100580066D02*
X152906352Y-100484828D01*
X152906352Y-100484828D02*
X152930162Y-100437209D01*
X152930162Y-100437209D02*
X152953971Y-100413400D01*
X152953971Y-100413400D02*
X153001590Y-100389590D01*
D11*
X147732961Y-84920000D02*
X147694866Y-84900952D01*
X147694866Y-84900952D02*
X147637723Y-84900952D01*
X147637723Y-84900952D02*
X147580580Y-84920000D01*
X147580580Y-84920000D02*
X147542485Y-84958095D01*
X147542485Y-84958095D02*
X147523438Y-84996190D01*
X147523438Y-84996190D02*
X147504390Y-85072380D01*
X147504390Y-85072380D02*
X147504390Y-85129523D01*
X147504390Y-85129523D02*
X147523438Y-85205714D01*
X147523438Y-85205714D02*
X147542485Y-85243809D01*
X147542485Y-85243809D02*
X147580580Y-85281904D01*
X147580580Y-85281904D02*
X147637723Y-85300952D01*
X147637723Y-85300952D02*
X147675819Y-85300952D01*
X147675819Y-85300952D02*
X147732961Y-85281904D01*
X147732961Y-85281904D02*
X147752009Y-85262857D01*
X147752009Y-85262857D02*
X147752009Y-85129523D01*
X147752009Y-85129523D02*
X147675819Y-85129523D01*
D10*
X141652857Y-83641114D02*
X141710000Y-83641114D01*
X141710000Y-83641114D02*
X141738571Y-83626828D01*
X141738571Y-83626828D02*
X141752857Y-83612542D01*
X141752857Y-83612542D02*
X141781428Y-83569685D01*
X141781428Y-83569685D02*
X141795714Y-83512542D01*
X141795714Y-83512542D02*
X141795714Y-83398257D01*
X141795714Y-83398257D02*
X141781428Y-83369685D01*
X141781428Y-83369685D02*
X141767143Y-83355400D01*
X141767143Y-83355400D02*
X141738571Y-83341114D01*
X141738571Y-83341114D02*
X141681428Y-83341114D01*
X141681428Y-83341114D02*
X141652857Y-83355400D01*
X141652857Y-83355400D02*
X141638571Y-83369685D01*
X141638571Y-83369685D02*
X141624285Y-83398257D01*
X141624285Y-83398257D02*
X141624285Y-83469685D01*
X141624285Y-83469685D02*
X141638571Y-83498257D01*
X141638571Y-83498257D02*
X141652857Y-83512542D01*
X141652857Y-83512542D02*
X141681428Y-83526828D01*
X141681428Y-83526828D02*
X141738571Y-83526828D01*
X141738571Y-83526828D02*
X141767143Y-83512542D01*
X141767143Y-83512542D02*
X141781428Y-83498257D01*
X141781428Y-83498257D02*
X141795714Y-83469685D01*
X141138571Y-84127114D02*
X140995714Y-84127114D01*
X140995714Y-84127114D02*
X140995714Y-83827114D01*
X141410000Y-84127114D02*
X141310000Y-83984257D01*
X141238571Y-84127114D02*
X141238571Y-83827114D01*
X141238571Y-83827114D02*
X141352857Y-83827114D01*
X141352857Y-83827114D02*
X141381428Y-83841400D01*
X141381428Y-83841400D02*
X141395714Y-83855685D01*
X141395714Y-83855685D02*
X141410000Y-83884257D01*
X141410000Y-83884257D02*
X141410000Y-83927114D01*
X141410000Y-83927114D02*
X141395714Y-83955685D01*
X141395714Y-83955685D02*
X141381428Y-83969971D01*
X141381428Y-83969971D02*
X141352857Y-83984257D01*
X141352857Y-83984257D02*
X141238571Y-83984257D01*
X141710000Y-84098542D02*
X141695714Y-84112828D01*
X141695714Y-84112828D02*
X141652857Y-84127114D01*
X141652857Y-84127114D02*
X141624285Y-84127114D01*
X141624285Y-84127114D02*
X141581428Y-84112828D01*
X141581428Y-84112828D02*
X141552857Y-84084257D01*
X141552857Y-84084257D02*
X141538571Y-84055685D01*
X141538571Y-84055685D02*
X141524285Y-83998542D01*
X141524285Y-83998542D02*
X141524285Y-83955685D01*
X141524285Y-83955685D02*
X141538571Y-83898542D01*
X141538571Y-83898542D02*
X141552857Y-83869971D01*
X141552857Y-83869971D02*
X141581428Y-83841400D01*
X141581428Y-83841400D02*
X141624285Y-83827114D01*
X141624285Y-83827114D02*
X141652857Y-83827114D01*
X141652857Y-83827114D02*
X141695714Y-83841400D01*
X141695714Y-83841400D02*
X141710000Y-83855685D01*
X141838571Y-84127114D02*
X141838571Y-83827114D01*
X142010000Y-84127114D02*
X141881428Y-83955685D01*
X142010000Y-83827114D02*
X141838571Y-83998542D01*
X142138571Y-84098542D02*
X142152857Y-84112828D01*
X142152857Y-84112828D02*
X142138571Y-84127114D01*
X142138571Y-84127114D02*
X142124285Y-84112828D01*
X142124285Y-84112828D02*
X142138571Y-84098542D01*
X142138571Y-84098542D02*
X142138571Y-84127114D01*
X142138571Y-83941400D02*
X142152857Y-83955685D01*
X142152857Y-83955685D02*
X142138571Y-83969971D01*
X142138571Y-83969971D02*
X142124285Y-83955685D01*
X142124285Y-83955685D02*
X142138571Y-83941400D01*
X142138571Y-83941400D02*
X142138571Y-83969971D01*
X142252857Y-83827114D02*
X142438571Y-83827114D01*
X142438571Y-83827114D02*
X142338571Y-83941400D01*
X142338571Y-83941400D02*
X142381428Y-83941400D01*
X142381428Y-83941400D02*
X142410000Y-83955685D01*
X142410000Y-83955685D02*
X142424285Y-83969971D01*
X142424285Y-83969971D02*
X142438571Y-83998542D01*
X142438571Y-83998542D02*
X142438571Y-84069971D01*
X142438571Y-84069971D02*
X142424285Y-84098542D01*
X142424285Y-84098542D02*
X142410000Y-84112828D01*
X142410000Y-84112828D02*
X142381428Y-84127114D01*
X142381428Y-84127114D02*
X142295714Y-84127114D01*
X142295714Y-84127114D02*
X142267142Y-84112828D01*
X142267142Y-84112828D02*
X142252857Y-84098542D01*
X141610000Y-91088114D02*
X141795714Y-91088114D01*
X141795714Y-91088114D02*
X141695714Y-91202400D01*
X141695714Y-91202400D02*
X141738571Y-91202400D01*
X141738571Y-91202400D02*
X141767143Y-91216685D01*
X141767143Y-91216685D02*
X141781428Y-91230971D01*
X141781428Y-91230971D02*
X141795714Y-91259542D01*
X141795714Y-91259542D02*
X141795714Y-91330971D01*
X141795714Y-91330971D02*
X141781428Y-91359542D01*
X141781428Y-91359542D02*
X141767143Y-91373828D01*
X141767143Y-91373828D02*
X141738571Y-91388114D01*
X141738571Y-91388114D02*
X141652857Y-91388114D01*
X141652857Y-91388114D02*
X141624285Y-91373828D01*
X141624285Y-91373828D02*
X141610000Y-91359542D01*
X141174286Y-91874114D02*
X141174286Y-91574114D01*
X141174286Y-91574114D02*
X141274286Y-91788400D01*
X141274286Y-91788400D02*
X141374286Y-91574114D01*
X141374286Y-91574114D02*
X141374286Y-91874114D01*
X141517143Y-91874114D02*
X141517143Y-91574114D01*
X141517143Y-91574114D02*
X141588572Y-91574114D01*
X141588572Y-91574114D02*
X141631429Y-91588400D01*
X141631429Y-91588400D02*
X141660000Y-91616971D01*
X141660000Y-91616971D02*
X141674286Y-91645542D01*
X141674286Y-91645542D02*
X141688572Y-91702685D01*
X141688572Y-91702685D02*
X141688572Y-91745542D01*
X141688572Y-91745542D02*
X141674286Y-91802685D01*
X141674286Y-91802685D02*
X141660000Y-91831257D01*
X141660000Y-91831257D02*
X141631429Y-91859828D01*
X141631429Y-91859828D02*
X141588572Y-91874114D01*
X141588572Y-91874114D02*
X141517143Y-91874114D01*
X141817143Y-91874114D02*
X141817143Y-91574114D01*
X141960000Y-91845542D02*
X141974286Y-91859828D01*
X141974286Y-91859828D02*
X141960000Y-91874114D01*
X141960000Y-91874114D02*
X141945714Y-91859828D01*
X141945714Y-91859828D02*
X141960000Y-91845542D01*
X141960000Y-91845542D02*
X141960000Y-91874114D01*
X141960000Y-91688400D02*
X141974286Y-91702685D01*
X141974286Y-91702685D02*
X141960000Y-91716971D01*
X141960000Y-91716971D02*
X141945714Y-91702685D01*
X141945714Y-91702685D02*
X141960000Y-91688400D01*
X141960000Y-91688400D02*
X141960000Y-91716971D01*
X142074286Y-91574114D02*
X142260000Y-91574114D01*
X142260000Y-91574114D02*
X142160000Y-91688400D01*
X142160000Y-91688400D02*
X142202857Y-91688400D01*
X142202857Y-91688400D02*
X142231429Y-91702685D01*
X142231429Y-91702685D02*
X142245714Y-91716971D01*
X142245714Y-91716971D02*
X142260000Y-91745542D01*
X142260000Y-91745542D02*
X142260000Y-91816971D01*
X142260000Y-91816971D02*
X142245714Y-91845542D01*
X142245714Y-91845542D02*
X142231429Y-91859828D01*
X142231429Y-91859828D02*
X142202857Y-91874114D01*
X142202857Y-91874114D02*
X142117143Y-91874114D01*
X142117143Y-91874114D02*
X142088571Y-91859828D01*
X142088571Y-91859828D02*
X142074286Y-91845542D01*
D11*
X152225600Y-85300952D02*
X152225600Y-84900952D01*
D12*
X141070315Y-75231428D02*
X141070315Y-74631428D01*
X141070315Y-74631428D02*
X141298886Y-74631428D01*
X141298886Y-74631428D02*
X141356029Y-74660000D01*
X141356029Y-74660000D02*
X141384600Y-74688571D01*
X141384600Y-74688571D02*
X141413172Y-74745714D01*
X141413172Y-74745714D02*
X141413172Y-74831428D01*
X141413172Y-74831428D02*
X141384600Y-74888571D01*
X141384600Y-74888571D02*
X141356029Y-74917142D01*
X141356029Y-74917142D02*
X141298886Y-74945714D01*
X141298886Y-74945714D02*
X141070315Y-74945714D01*
X141670315Y-75231428D02*
X141670315Y-74631428D01*
X141956029Y-75231428D02*
X141956029Y-74631428D01*
X141956029Y-74631428D02*
X142298886Y-75231428D01*
X142298886Y-75231428D02*
X142298886Y-74631428D01*
D13*
%TO.C,*%
D14*
%TO.C,J4*%
X145707000Y-100420000D02*
X144377000Y-100420000D01*
X145707000Y-99090000D02*
X145707000Y-100420000D01*
X145707000Y-97820000D02*
X145707000Y-74900000D01*
X145707000Y-97820000D02*
X143047000Y-97820000D01*
X145707000Y-74900000D02*
X143047000Y-74900000D01*
X143047000Y-97820000D02*
X143047000Y-74900000D01*
%TO.C,C2*%
X150915400Y-85828400D02*
X150915400Y-86328400D01*
X151165400Y-86078400D02*
X150665400Y-86078400D01*
X150550963Y-86568400D02*
X150415400Y-86568400D01*
X150550963Y-86568400D02*
X151615400Y-87632837D01*
X148159837Y-86568400D02*
X148295400Y-86568400D01*
X148159837Y-86568400D02*
X147095400Y-87632837D01*
X151615400Y-87632837D02*
X151615400Y-91088400D01*
X147095400Y-87632837D02*
X147095400Y-91088400D01*
X151615400Y-91088400D02*
X150415400Y-91088400D01*
X147095400Y-91088400D02*
X148295400Y-91088400D01*
%TO.C,C1*%
X152820400Y-92810000D02*
X152820400Y-93310000D01*
X153070400Y-93060000D02*
X152570400Y-93060000D01*
X152455963Y-93550000D02*
X152320400Y-93550000D01*
X152455963Y-93550000D02*
X153520400Y-94614437D01*
X150064837Y-93550000D02*
X150200400Y-93550000D01*
X150064837Y-93550000D02*
X149000400Y-94614437D01*
X153520400Y-94614437D02*
X153520400Y-98070000D01*
X149000400Y-94614437D02*
X149000400Y-98070000D01*
X153520400Y-98070000D02*
X152320400Y-98070000D01*
X149000400Y-98070000D02*
X150200400Y-98070000D01*
%TO.C,J4*%
X140373000Y-100415000D02*
X139043000Y-100415000D01*
X140373000Y-99085000D02*
X140373000Y-100415000D01*
X140373000Y-97815000D02*
X140373000Y-74895000D01*
X140373000Y-97815000D02*
X137713000Y-97815000D01*
X140373000Y-74895000D02*
X137713000Y-74895000D01*
X137713000Y-97815000D02*
X137713000Y-74895000D01*
%TO.C,U1*%
X146555000Y-84445200D02*
X146555000Y-78435200D01*
X153375000Y-82195200D02*
X153375000Y-78435200D01*
X146555000Y-78435200D02*
X147815000Y-78435200D01*
X153375000Y-78435200D02*
X152115000Y-78435200D01*
%TD*%
M02*
