M48
; DRILL file {KiCad (6.99.0-1006-g2560c8f31b)} date 2022 March 06, Sunday 10:16:38
; FORMAT={-:-/ absolute / inch / decimal}
; #@! TF.CreationDate,2022-03-06T10:16:38+01:00
; #@! TF.GenerationSoftware,Kicad,Pcbnew,(6.99.0-1006-g2560c8f31b)
; #@! TF.FileFunction,Plated,1,2,PTH
FMAT,2
INCH
; #@! TA.AperFunction,Plated,PTH,ViaDrill
T1C0.0157
; #@! TA.AperFunction,Plated,PTH,ComponentDrill
T2C0.0394
%
G90
G05
T1
X5.7501Y-3.6532
X5.7501Y-3.8042
X5.7801Y-2.9512
X5.8111Y-2.9702
X5.8131Y-3.7012
X5.8131Y-3.8042
X5.8421Y-2.9522
X5.8721Y-2.9712
X5.8801Y-3.6532
X5.9041Y-2.9512
X5.9341Y-2.9722
X5.9641Y-2.9512
X5.9971Y-2.9742
X6.0001Y-3.4392
X6.0011Y-3.5562
X6.0271Y-2.9522
X6.0401Y-3.6822
T2
X5.4741Y-3.001
X5.4741Y-3.101
X5.4741Y-3.201
X5.4741Y-3.301
X5.4741Y-3.401
X5.4741Y-3.501
X5.4741Y-3.601
X5.4741Y-3.701
X5.4741Y-3.801
X5.4741Y-3.901
X5.6841Y-3.0012
X5.6841Y-3.1012
X5.6841Y-3.2012
X5.6841Y-3.3012
X5.6841Y-3.4012
X5.6841Y-3.5012
X5.6841Y-3.6012
X5.6841Y-3.7012
X5.6841Y-3.8012
X5.6841Y-3.9012
X6.1291Y-3.1042
X6.1291Y-3.2042
X6.1291Y-3.3042
X6.1291Y-3.4042
X6.1291Y-3.5042
X6.1291Y-3.6042
X6.1291Y-3.7042
X6.1291Y-3.8042
X6.2291Y-3.1042
X6.2291Y-3.2042
X6.2291Y-3.3042
X6.2291Y-3.4042
X6.2291Y-3.5042
X6.2291Y-3.6042
X6.2291Y-3.7042
X6.2291Y-3.8042
T0
M30
