%TF.GenerationSoftware,KiCad,Pcbnew,(6.99.0-1006-g2560c8f31b)*%
%TF.CreationDate,2022-03-06T10:16:36+01:00*%
%TF.ProjectId,freeDSP-aurora-expansion-port-extender,66726565-4453-4502-9d61-75726f72612d,rev?*%
%TF.SameCoordinates,Original*%
%TF.FileFunction,Copper,L1,Top*%
%TF.FilePolarity,Positive*%
%FSLAX46Y46*%
G04 Gerber Fmt 4.6, Leading zero omitted, Abs format (unit mm)*
G04 Created by KiCad (PCBNEW (6.99.0-1006-g2560c8f31b)) date 2022-03-06 10:16:36*
%MOMM*%
%LPD*%
G01*
G04 APERTURE LIST*
G04 Aperture macros list*
%AMRoundRect*
0 Rectangle with rounded corners*
0 $1 Rounding radius*
0 $2 $3 $4 $5 $6 $7 $8 $9 X,Y pos of 4 corners*
0 Add a 4 corners polygon primitive as box body*
4,1,4,$2,$3,$4,$5,$6,$7,$8,$9,$2,$3,0*
0 Add four circle primitives for the rounded corners*
1,1,$1+$1,$2,$3*
1,1,$1+$1,$4,$5*
1,1,$1+$1,$6,$7*
1,1,$1+$1,$8,$9*
0 Add four rect primitives between the rounded corners*
20,1,$1+$1,$2,$3,$4,$5,0*
20,1,$1+$1,$4,$5,$6,$7,0*
20,1,$1+$1,$6,$7,$8,$9,0*
20,1,$1+$1,$8,$9,$2,$3,0*%
G04 Aperture macros list end*
%TA.AperFunction,ComponentPad*%
%ADD10R,1.700000X1.700000*%
%TD*%
%TA.AperFunction,ComponentPad*%
%ADD11O,1.700000X1.700000*%
%TD*%
%TA.AperFunction,SMDPad,CuDef*%
%ADD12R,3.800000X2.000000*%
%TD*%
%TA.AperFunction,SMDPad,CuDef*%
%ADD13RoundRect,0.249600X-0.550400X1.050400X-0.550400X-1.050400X0.550400X-1.050400X0.550400X1.050400X0*%
%TD*%
%TA.AperFunction,SMDPad,CuDef*%
%ADD14RoundRect,0.250000X-0.550000X1.050000X-0.550000X-1.050000X0.550000X-1.050000X0.550000X1.050000X0*%
%TD*%
%TA.AperFunction,SMDPad,CuDef*%
%ADD15R,1.500000X2.000000*%
%TD*%
%TA.AperFunction,ViaPad*%
%ADD16C,0.800000*%
%TD*%
%TA.AperFunction,Conductor*%
%ADD17C,0.350000*%
%TD*%
%TA.AperFunction,Conductor*%
%ADD18C,0.250000*%
%TD*%
%TA.AperFunction,Conductor*%
%ADD19C,0.500000*%
%TD*%
%TA.AperFunction,Conductor*%
%ADD20C,0.200000*%
%TD*%
G04 APERTURE END LIST*
D10*
%TO.P,J4,0*%
%TO.N,+3V3*%
X144376999Y-99089999D03*
D11*
%TO.P,J4,1*%
%TO.N,GND*%
X144376999Y-96549999D03*
%TO.P,J4,2*%
%TO.N,+12V*%
X144376999Y-94009999D03*
%TO.P,J4,3*%
%TO.N,MDI:3*%
X144376999Y-91469999D03*
%TO.P,J4,4*%
%TO.N,MDO:3*%
X144376999Y-88929999D03*
%TO.P,J4,5*%
%TO.N,BCLK:3*%
X144376999Y-86389999D03*
%TO.P,J4,6*%
%TO.N,LRCK:3*%
X144376999Y-83849999D03*
%TO.P,J4,7*%
%TO.N,SDA*%
X144376999Y-81309999D03*
%TO.P,J4,8*%
%TO.N,SCL*%
X144376999Y-78769999D03*
%TO.P,J4,9*%
%TO.N,MCLK*%
X144376999Y-76229999D03*
%TD*%
D12*
%TO.P,,2*%
%TO.N,N/C*%
X151641399Y-75493399D03*
%TD*%
D13*
%TO.P,C2,1*%
%TO.N,+3V3*%
X149355400Y-87028400D03*
%TO.P,C2,2*%
%TO.N,GND*%
X149355400Y-90628400D03*
%TD*%
D14*
%TO.P,C1,1*%
%TO.N,+12V*%
X151260400Y-94010000D03*
%TO.P,C1,2*%
%TO.N,GND*%
X151260400Y-97610000D03*
%TD*%
D12*
%TO.P,,2*%
%TO.N,N/C*%
X151641399Y-77195199D03*
%TD*%
D10*
%TO.P,J4,0*%
%TO.N,+3V3*%
X139042999Y-99084999D03*
D11*
%TO.P,J4,1*%
%TO.N,GND*%
X139042999Y-96544999D03*
%TO.P,J4,2*%
%TO.N,+12V*%
X139042999Y-94004999D03*
%TO.P,J4,3*%
%TO.N,MDI:3*%
X139042999Y-91464999D03*
%TO.P,J4,4*%
%TO.N,MDO:3*%
X139042999Y-88924999D03*
%TO.P,J4,5*%
%TO.N,BCLK:3*%
X139042999Y-86384999D03*
%TO.P,J4,6*%
%TO.N,LRCK:3*%
X139042999Y-83844999D03*
%TO.P,J4,7*%
%TO.N,SDA*%
X139042999Y-81304999D03*
%TO.P,J4,8*%
%TO.N,SCL*%
X139042999Y-78764999D03*
%TO.P,J4,9*%
%TO.N,MCLK*%
X139042999Y-76224999D03*
%TD*%
D15*
%TO.P,U1,1*%
%TO.N,GND*%
X147664999Y-83495199D03*
%TO.P,U1,2*%
%TO.N,+3V3*%
X149964999Y-83495199D03*
D12*
%TO.N,N/C*%
X149964999Y-77195199D03*
D15*
%TO.P,U1,3*%
%TO.N,+12V*%
X152264999Y-83495199D03*
%TD*%
D12*
%TO.P,,2*%
%TO.N,N/C*%
X148288599Y-75493399D03*
%TD*%
%TO.P,,2*%
%TO.N,N/C*%
X148288599Y-77195199D03*
%TD*%
D10*
%TO.P,J2,1*%
%TO.N,+12V*%
X158219999Y-96626199D03*
D11*
%TO.P,J2,2*%
%TO.N,GND*%
X155679999Y-96626199D03*
%TO.P,J2,3*%
%TO.N,MDI:3*%
X158219999Y-94086199D03*
%TO.P,J2,4*%
%TO.N,GND*%
X155679999Y-94086199D03*
%TO.P,J2,5*%
%TO.N,MDO:3*%
X158219999Y-91546199D03*
%TO.P,J2,6*%
%TO.N,GND*%
X155679999Y-91546199D03*
%TO.P,J2,7*%
%TO.N,BCLK:3*%
X158219999Y-89006199D03*
%TO.P,J2,8*%
%TO.N,GND*%
X155679999Y-89006199D03*
%TO.P,J2,9*%
%TO.N,LRCK:3*%
X158219999Y-86466199D03*
%TO.P,J2,10*%
%TO.N,GND*%
X155679999Y-86466199D03*
%TO.P,J2,11*%
%TO.N,SDA*%
X158219999Y-83926199D03*
%TO.P,J2,12*%
%TO.N,GND*%
X155679999Y-83926199D03*
%TO.P,J2,13*%
%TO.N,SCL*%
X158219999Y-81386199D03*
%TO.P,J2,14*%
%TO.N,GND*%
X155679999Y-81386199D03*
%TO.P,J2,15*%
%TO.N,MCLK*%
X158219999Y-78846199D03*
%TO.P,J2,16*%
%TO.N,GND*%
X155679999Y-78846199D03*
%TD*%
D16*
%TO.N,*%
X153089200Y-74985400D03*
X152327200Y-75544200D03*
X149965000Y-74960000D03*
X147602800Y-75442600D03*
X148390200Y-74985400D03*
X149152200Y-75468000D03*
X150727000Y-75493400D03*
X151489000Y-74960000D03*
X146815400Y-74960000D03*
%TO.N,GND*%
X147653600Y-96626200D03*
X149355400Y-92790800D03*
X146053400Y-96626200D03*
X146053400Y-92790800D03*
X152428800Y-90327000D03*
%TO.N,+12V*%
X153419400Y-93527400D03*
X147653600Y-94010000D03*
%TO.N,+3V3*%
X152403400Y-87355200D03*
%TD*%
D17*
%TO.N,GND*%
X150276600Y-96626200D02*
X151260400Y-97610000D01*
D18*
X152428800Y-90327000D02*
X152127400Y-90628400D01*
D17*
X146053400Y-96626200D02*
X146053400Y-92790800D01*
X146053400Y-83697600D02*
X146154600Y-83596400D01*
D18*
X152127400Y-90628400D02*
X149355400Y-90628400D01*
D19*
X155651200Y-81295000D02*
X155651200Y-83835000D01*
X155651200Y-93995000D02*
X155651200Y-96535000D01*
D17*
X152244200Y-96626200D02*
X151260400Y-97610000D01*
X149355400Y-92790800D02*
X149355400Y-90628400D01*
D20*
X147690400Y-83596400D02*
X147690400Y-83582800D01*
D17*
X146053400Y-92790800D02*
X146053400Y-83697600D01*
D19*
X155651200Y-88915000D02*
X155651200Y-91455000D01*
X155651200Y-86375000D02*
X155651200Y-88915000D01*
X155651200Y-91455000D02*
X155651200Y-93995000D01*
D17*
X155680000Y-96626200D02*
X152244200Y-96626200D01*
X147653600Y-96626200D02*
X150276600Y-96626200D01*
X146154600Y-83596400D02*
X147690400Y-83596400D01*
D19*
X155651200Y-83835000D02*
X155651200Y-86375000D01*
X155651200Y-78755000D02*
X155651200Y-81295000D01*
D17*
%TO.N,+12V*%
X151260400Y-94010000D02*
X152936800Y-94010000D01*
X153419400Y-93527400D02*
X153419400Y-83621400D01*
X153419400Y-83621400D02*
X153394400Y-83596400D01*
X152936800Y-94010000D02*
X153419400Y-93527400D01*
X153394400Y-83596400D02*
X152290400Y-83596400D01*
X151260400Y-94010000D02*
X147653600Y-94010000D01*
D20*
%TO.N,+3V3*%
X149355400Y-87028400D02*
X148889089Y-87494711D01*
X152076600Y-87028400D02*
X152403400Y-87355200D01*
D17*
X145494600Y-99090000D02*
X146827911Y-97756689D01*
D20*
X149990400Y-86393400D02*
X149355400Y-87028400D01*
D17*
X146827911Y-89555889D02*
X149355400Y-87028400D01*
X149355400Y-87028400D02*
X149355400Y-84104800D01*
D20*
X149355400Y-87028400D02*
X152076600Y-87028400D01*
D17*
X146827911Y-97756689D02*
X146827911Y-89555889D01*
D19*
X144377000Y-99090000D02*
X145494600Y-99090000D01*
D17*
X149355400Y-84104800D02*
X149965000Y-83495200D01*
D20*
%TO.N,MCLK*%
X158218200Y-78782000D02*
X158191200Y-78755000D01*
X158220000Y-78846200D02*
X158220000Y-79455800D01*
D19*
X139048000Y-76230000D02*
X139043000Y-76225000D01*
%TD*%
M02*
