%TF.GenerationSoftware,KiCad,Pcbnew,(6.99.0-1006-g2560c8f31b)*%
%TF.CreationDate,2022-03-06T10:16:36+01:00*%
%TF.ProjectId,freeDSP-aurora-expansion-port-extender,66726565-4453-4502-9d61-75726f72612d,rev?*%
%TF.SameCoordinates,Original*%
%TF.FileFunction,Soldermask,Top*%
%TF.FilePolarity,Negative*%
%FSLAX46Y46*%
G04 Gerber Fmt 4.6, Leading zero omitted, Abs format (unit mm)*
G04 Created by KiCad (PCBNEW (6.99.0-1006-g2560c8f31b)) date 2022-03-06 10:16:36*
%MOMM*%
%LPD*%
G01*
G04 APERTURE LIST*
G04 Aperture macros list*
%AMRoundRect*
0 Rectangle with rounded corners*
0 $1 Rounding radius*
0 $2 $3 $4 $5 $6 $7 $8 $9 X,Y pos of 4 corners*
0 Add a 4 corners polygon primitive as box body*
4,1,4,$2,$3,$4,$5,$6,$7,$8,$9,$2,$3,0*
0 Add four circle primitives for the rounded corners*
1,1,$1+$1,$2,$3*
1,1,$1+$1,$4,$5*
1,1,$1+$1,$6,$7*
1,1,$1+$1,$8,$9*
0 Add four rect primitives between the rounded corners*
20,1,$1+$1,$2,$3,$4,$5,0*
20,1,$1+$1,$4,$5,$6,$7,0*
20,1,$1+$1,$6,$7,$8,$9,0*
20,1,$1+$1,$8,$9,$2,$3,0*%
G04 Aperture macros list end*
%ADD10R,1.700000X1.700000*%
%ADD11O,1.700000X1.700000*%
%ADD12R,3.800000X2.000000*%
%ADD13RoundRect,0.249600X-0.550400X1.050400X-0.550400X-1.050400X0.550400X-1.050400X0.550400X1.050400X0*%
%ADD14RoundRect,0.250000X-0.550000X1.050000X-0.550000X-1.050000X0.550000X-1.050000X0.550000X1.050000X0*%
%ADD15R,1.500000X2.000000*%
G04 APERTURE END LIST*
D10*
%TO.C,J4*%
X144376999Y-99089999D03*
D11*
X144376999Y-96549999D03*
X144376999Y-94009999D03*
X144376999Y-91469999D03*
X144376999Y-88929999D03*
X144376999Y-86389999D03*
X144376999Y-83849999D03*
X144376999Y-81309999D03*
X144376999Y-78769999D03*
X144376999Y-76229999D03*
%TD*%
D12*
%TO.C,*%
X151641399Y-75493399D03*
%TD*%
D13*
%TO.C,C2*%
X149355400Y-87028400D03*
X149355400Y-90628400D03*
%TD*%
D14*
%TO.C,C1*%
X151260400Y-94010000D03*
X151260400Y-97610000D03*
%TD*%
D12*
%TO.C,*%
X151641399Y-77195199D03*
%TD*%
D10*
%TO.C,J4*%
X139042999Y-99084999D03*
D11*
X139042999Y-96544999D03*
X139042999Y-94004999D03*
X139042999Y-91464999D03*
X139042999Y-88924999D03*
X139042999Y-86384999D03*
X139042999Y-83844999D03*
X139042999Y-81304999D03*
X139042999Y-78764999D03*
X139042999Y-76224999D03*
%TD*%
D15*
%TO.C,U1*%
X147664999Y-83495199D03*
X149964999Y-83495199D03*
D12*
X149964999Y-77195199D03*
D15*
X152264999Y-83495199D03*
%TD*%
D12*
%TO.C,*%
X148288599Y-75493399D03*
%TD*%
%TO.C,*%
X148288599Y-77195199D03*
%TD*%
D10*
%TO.C,J2*%
X158219999Y-96626199D03*
D11*
X155679999Y-96626199D03*
X158219999Y-94086199D03*
X155679999Y-94086199D03*
X158219999Y-91546199D03*
X155679999Y-91546199D03*
X158219999Y-89006199D03*
X155679999Y-89006199D03*
X158219999Y-86466199D03*
X155679999Y-86466199D03*
X158219999Y-83926199D03*
X155679999Y-83926199D03*
X158219999Y-81386199D03*
X155679999Y-81386199D03*
X158219999Y-78846199D03*
X155679999Y-78846199D03*
%TD*%
M02*
