%TF.GenerationSoftware,KiCad,Pcbnew,(6.99.0-1006-g2560c8f31b)*%
%TF.CreationDate,2022-03-06T10:16:36+01:00*%
%TF.ProjectId,freeDSP-aurora-expansion-port-extender,66726565-4453-4502-9d61-75726f72612d,rev?*%
%TF.SameCoordinates,Original*%
%TF.FileFunction,Copper,L2,Bot*%
%TF.FilePolarity,Positive*%
%FSLAX46Y46*%
G04 Gerber Fmt 4.6, Leading zero omitted, Abs format (unit mm)*
G04 Created by KiCad (PCBNEW (6.99.0-1006-g2560c8f31b)) date 2022-03-06 10:16:36*
%MOMM*%
%LPD*%
G01*
G04 APERTURE LIST*
G04 Aperture macros list*
%AMRoundRect*
0 Rectangle with rounded corners*
0 $1 Rounding radius*
0 $2 $3 $4 $5 $6 $7 $8 $9 X,Y pos of 4 corners*
0 Add a 4 corners polygon primitive as box body*
4,1,4,$2,$3,$4,$5,$6,$7,$8,$9,$2,$3,0*
0 Add four circle primitives for the rounded corners*
1,1,$1+$1,$2,$3*
1,1,$1+$1,$4,$5*
1,1,$1+$1,$6,$7*
1,1,$1+$1,$8,$9*
0 Add four rect primitives between the rounded corners*
20,1,$1+$1,$2,$3,$4,$5,0*
20,1,$1+$1,$4,$5,$6,$7,0*
20,1,$1+$1,$6,$7,$8,$9,0*
20,1,$1+$1,$8,$9,$2,$3,0*%
G04 Aperture macros list end*
%ADD10C,0.060000*%
%TA.AperFunction,NonConductor*%
%ADD11C,0.060000*%
%TD*%
%TA.AperFunction,ComponentPad*%
%ADD12R,1.700000X1.700000*%
%TD*%
%TA.AperFunction,ComponentPad*%
%ADD13O,1.700000X1.700000*%
%TD*%
%TA.AperFunction,SMDPad,CuDef*%
%ADD14RoundRect,0.249550X-0.650450X0.325450X-0.650450X-0.325450X0.650450X-0.325450X0.650450X0.325450X0*%
%TD*%
%TA.AperFunction,ViaPad*%
%ADD15C,0.800000*%
%TD*%
%TA.AperFunction,Conductor*%
%ADD16C,0.250000*%
%TD*%
%TA.AperFunction,Conductor*%
%ADD17C,0.500000*%
%TD*%
%TA.AperFunction,Conductor*%
%ADD18C,0.350000*%
%TD*%
%TA.AperFunction,Conductor*%
%ADD19C,0.200000*%
%TD*%
G04 APERTURE END LIST*
D10*
D11*
X151159436Y-80267780D02*
X151207055Y-80291590D01*
X151207055Y-80291590D02*
X151302293Y-80291590D01*
X151302293Y-80291590D02*
X151349912Y-80267780D01*
X151349912Y-80267780D02*
X151373722Y-80243971D01*
X151373722Y-80243971D02*
X151397531Y-80196352D01*
X151397531Y-80196352D02*
X151397531Y-80053495D01*
X151397531Y-80053495D02*
X151373722Y-80005876D01*
X151373722Y-80005876D02*
X151349912Y-79982066D01*
X151349912Y-79982066D02*
X151302293Y-79958257D01*
X151302293Y-79958257D02*
X151207055Y-79958257D01*
X151207055Y-79958257D02*
X151159436Y-79982066D01*
X150992770Y-79958257D02*
X150897532Y-80291590D01*
X150897532Y-80291590D02*
X150802294Y-80053495D01*
X150802294Y-80053495D02*
X150707056Y-80291590D01*
X150707056Y-80291590D02*
X150611818Y-79958257D01*
X150145150Y-79839209D02*
X150121341Y-79815400D01*
X150121341Y-79815400D02*
X150073722Y-79791590D01*
X150073722Y-79791590D02*
X149954674Y-79791590D01*
X149954674Y-79791590D02*
X149907055Y-79815400D01*
X149907055Y-79815400D02*
X149883246Y-79839209D01*
X149883246Y-79839209D02*
X149859436Y-79886828D01*
X149859436Y-79886828D02*
X149859436Y-79934447D01*
X149859436Y-79934447D02*
X149883246Y-80005876D01*
X149883246Y-80005876D02*
X150168960Y-80291590D01*
X150168960Y-80291590D02*
X149859436Y-80291590D01*
X149549913Y-79791590D02*
X149502294Y-79791590D01*
X149502294Y-79791590D02*
X149454675Y-79815400D01*
X149454675Y-79815400D02*
X149430865Y-79839209D01*
X149430865Y-79839209D02*
X149407056Y-79886828D01*
X149407056Y-79886828D02*
X149383246Y-79982066D01*
X149383246Y-79982066D02*
X149383246Y-80101114D01*
X149383246Y-80101114D02*
X149407056Y-80196352D01*
X149407056Y-80196352D02*
X149430865Y-80243971D01*
X149430865Y-80243971D02*
X149454675Y-80267780D01*
X149454675Y-80267780D02*
X149502294Y-80291590D01*
X149502294Y-80291590D02*
X149549913Y-80291590D01*
X149549913Y-80291590D02*
X149597532Y-80267780D01*
X149597532Y-80267780D02*
X149621341Y-80243971D01*
X149621341Y-80243971D02*
X149645151Y-80196352D01*
X149645151Y-80196352D02*
X149668960Y-80101114D01*
X149668960Y-80101114D02*
X149668960Y-79982066D01*
X149668960Y-79982066D02*
X149645151Y-79886828D01*
X149645151Y-79886828D02*
X149621341Y-79839209D01*
X149621341Y-79839209D02*
X149597532Y-79815400D01*
X149597532Y-79815400D02*
X149549913Y-79791590D01*
X149192770Y-79839209D02*
X149168961Y-79815400D01*
X149168961Y-79815400D02*
X149121342Y-79791590D01*
X149121342Y-79791590D02*
X149002294Y-79791590D01*
X149002294Y-79791590D02*
X148954675Y-79815400D01*
X148954675Y-79815400D02*
X148930866Y-79839209D01*
X148930866Y-79839209D02*
X148907056Y-79886828D01*
X148907056Y-79886828D02*
X148907056Y-79934447D01*
X148907056Y-79934447D02*
X148930866Y-80005876D01*
X148930866Y-80005876D02*
X149216580Y-80291590D01*
X149216580Y-80291590D02*
X148907056Y-80291590D01*
X148430866Y-80291590D02*
X148716580Y-80291590D01*
X148573723Y-80291590D02*
X148573723Y-79791590D01*
X148573723Y-79791590D02*
X148621342Y-79863019D01*
X148621342Y-79863019D02*
X148668961Y-79910638D01*
X148668961Y-79910638D02*
X148716580Y-79934447D01*
D12*
%TO.P,J4,0*%
%TO.N,+3V3*%
X144376999Y-99089999D03*
D13*
%TO.P,J4,1*%
%TO.N,GND*%
X144376999Y-96549999D03*
%TO.P,J4,2*%
%TO.N,+12V*%
X144376999Y-94009999D03*
%TO.P,J4,3*%
%TO.N,MDI:3*%
X144376999Y-91469999D03*
%TO.P,J4,4*%
%TO.N,MDO:3*%
X144376999Y-88929999D03*
%TO.P,J4,5*%
%TO.N,BCLK:3*%
X144376999Y-86389999D03*
%TO.P,J4,6*%
%TO.N,LRCK:3*%
X144376999Y-83849999D03*
%TO.P,J4,7*%
%TO.N,SDA*%
X144376999Y-81309999D03*
%TO.P,J4,8*%
%TO.N,SCL*%
X144376999Y-78769999D03*
%TO.P,J4,9*%
%TO.N,MCLK*%
X144376999Y-76229999D03*
%TD*%
D12*
%TO.P,J4,0*%
%TO.N,+3V3*%
X139042999Y-99084999D03*
D13*
%TO.P,J4,1*%
%TO.N,GND*%
X139042999Y-96544999D03*
%TO.P,J4,2*%
%TO.N,+12V*%
X139042999Y-94004999D03*
%TO.P,J4,3*%
%TO.N,MDI:3*%
X139042999Y-91464999D03*
%TO.P,J4,4*%
%TO.N,MDO:3*%
X139042999Y-88924999D03*
%TO.P,J4,5*%
%TO.N,BCLK:3*%
X139042999Y-86384999D03*
%TO.P,J4,6*%
%TO.N,LRCK:3*%
X139042999Y-83844999D03*
%TO.P,J4,7*%
%TO.N,SDA*%
X139042999Y-81304999D03*
%TO.P,J4,8*%
%TO.N,SCL*%
X139042999Y-78764999D03*
%TO.P,J4,9*%
%TO.N,MCLK*%
X139042999Y-76224999D03*
%TD*%
D14*
%TO.P,C11,1*%
%TO.N,+12V*%
X151260400Y-94335000D03*
%TO.P,C11,2*%
%TO.N,GND*%
X151260400Y-97285000D03*
%TD*%
D12*
%TO.P,J2,1*%
%TO.N,+12V*%
X158219999Y-96626199D03*
D13*
%TO.P,J2,2*%
%TO.N,GND*%
X155679999Y-96626199D03*
%TO.P,J2,3*%
%TO.N,MDI:3*%
X158219999Y-94086199D03*
%TO.P,J2,4*%
%TO.N,GND*%
X155679999Y-94086199D03*
%TO.P,J2,5*%
%TO.N,MDO:3*%
X158219999Y-91546199D03*
%TO.P,J2,6*%
%TO.N,GND*%
X155679999Y-91546199D03*
%TO.P,J2,7*%
%TO.N,BCLK:3*%
X158219999Y-89006199D03*
%TO.P,J2,8*%
%TO.N,GND*%
X155679999Y-89006199D03*
%TO.P,J2,9*%
%TO.N,LRCK:3*%
X158219999Y-86466199D03*
%TO.P,J2,10*%
%TO.N,GND*%
X155679999Y-86466199D03*
%TO.P,J2,11*%
%TO.N,SDA*%
X158219999Y-83926199D03*
%TO.P,J2,12*%
%TO.N,GND*%
X155679999Y-83926199D03*
%TO.P,J2,13*%
%TO.N,SCL*%
X158219999Y-81386199D03*
%TO.P,J2,14*%
%TO.N,GND*%
X155679999Y-81386199D03*
%TO.P,J2,15*%
%TO.N,MCLK*%
X158219999Y-78846199D03*
%TO.P,J2,16*%
%TO.N,GND*%
X155679999Y-78846199D03*
%TD*%
D14*
%TO.P,C22,1*%
%TO.N,+3V3*%
X149355400Y-87378800D03*
%TO.P,C22,2*%
%TO.N,GND*%
X149355400Y-90328800D03*
%TD*%
D15*
%TO.N,*%
X153089200Y-74985400D03*
X152327200Y-75544200D03*
X149965000Y-74960000D03*
X147602800Y-75442600D03*
X148390200Y-74985400D03*
X149152200Y-75468000D03*
X150727000Y-75493400D03*
X151489000Y-74960000D03*
X146815400Y-74960000D03*
%TO.N,GND*%
X147653600Y-96626200D03*
X149355400Y-92790800D03*
X146053400Y-96626200D03*
X146053400Y-92790800D03*
X152428800Y-90327000D03*
%TO.N,+12V*%
X153419400Y-93527400D03*
X147653600Y-94010000D03*
%TO.N,+3V3*%
X152403400Y-87355200D03*
%TD*%
D16*
%TO.N,GND*%
X152428800Y-90327000D02*
X152427000Y-90328800D01*
D17*
X139048000Y-96550000D02*
X139043000Y-96545000D01*
D18*
X147399600Y-96626200D02*
X146764600Y-96626200D01*
X146764600Y-96626200D02*
X146104200Y-96626200D01*
X144377000Y-96550000D02*
X146028000Y-96550000D01*
X148312400Y-97285000D02*
X147653600Y-96626200D01*
X144399900Y-96575400D02*
X139070900Y-96575400D01*
D16*
X152427000Y-90328800D02*
X149355400Y-90328800D01*
D19*
X144453200Y-96626200D02*
X144377000Y-96550000D01*
D18*
X146053400Y-92790800D02*
X149355400Y-92790800D01*
D19*
X146028000Y-96550000D02*
X146104200Y-96626200D01*
D18*
X151260400Y-97285000D02*
X148312400Y-97285000D01*
%TO.N,+12V*%
X152611800Y-94335000D02*
X151260400Y-94335000D01*
X158220000Y-96626200D02*
X156492800Y-98353400D01*
X153419400Y-93527400D02*
X152611800Y-94335000D01*
X154486200Y-98353400D02*
X153419400Y-97286600D01*
X147653600Y-94010000D02*
X144377000Y-94010000D01*
X156492800Y-98353400D02*
X154486200Y-98353400D01*
X153419400Y-97286600D02*
X153419400Y-93527400D01*
X144377000Y-94010000D02*
X139048000Y-94010000D01*
D19*
X139048000Y-94010000D02*
X139043000Y-94005000D01*
%TO.N,+3V3*%
X152403400Y-87355200D02*
X152379800Y-87378800D01*
X139048000Y-99090000D02*
X139043000Y-99085000D01*
D18*
X144377000Y-99090000D02*
X139048000Y-99090000D01*
D19*
X152379800Y-87378800D02*
X149355400Y-87378800D01*
%TO.N,SCL*%
X154638600Y-80192400D02*
X156975400Y-80192400D01*
X153216200Y-78770000D02*
X154638600Y-80192400D01*
X144377000Y-79300000D02*
X144377000Y-78770000D01*
X156975400Y-80192400D02*
X158169200Y-81386200D01*
X144377000Y-78770000D02*
X139048000Y-78770000D01*
X139048000Y-78770000D02*
X139043000Y-78765000D01*
X144326200Y-78770000D02*
X153216200Y-78770000D01*
%TO.N,SDA*%
X144377000Y-81310000D02*
X139048000Y-81310000D01*
X154638600Y-82732400D02*
X156975400Y-82732400D01*
X153216200Y-81310000D02*
X154638600Y-82732400D01*
X139048000Y-81310000D02*
X139043000Y-81305000D01*
X144326200Y-81310000D02*
X153216200Y-81310000D01*
X156975400Y-82732400D02*
X158169200Y-83926200D01*
%TO.N,BCLK:3*%
X156930000Y-87751200D02*
X158123800Y-88945000D01*
X154593200Y-87751200D02*
X156930000Y-87751200D01*
X153170800Y-86328800D02*
X154593200Y-87751200D01*
X144280800Y-86328800D02*
X153170800Y-86328800D01*
X139048000Y-86390000D02*
X139043000Y-86385000D01*
X144377000Y-86390000D02*
X139048000Y-86390000D01*
%TO.N,MDO:3*%
X156975400Y-90352400D02*
X158169200Y-91546200D01*
X139048000Y-88930000D02*
X139043000Y-88925000D01*
X154638600Y-90352400D02*
X156975400Y-90352400D01*
X144326200Y-88930000D02*
X153216200Y-88930000D01*
X153216200Y-88930000D02*
X154638600Y-90352400D01*
X144377000Y-88930000D02*
X139048000Y-88930000D01*
%TO.N,MDI:3*%
X154689400Y-92892400D02*
X157026200Y-92892400D01*
X144377000Y-91470000D02*
X153267000Y-91470000D01*
X153267000Y-91470000D02*
X154689400Y-92892400D01*
X144377000Y-91470000D02*
X139048000Y-91470000D01*
X157026200Y-92892400D02*
X158220000Y-94086200D01*
X139048000Y-91470000D02*
X139043000Y-91465000D01*
%TO.N,MCLK*%
X144326200Y-76230000D02*
X153216200Y-76230000D01*
X156975400Y-77652400D02*
X158169200Y-78846200D01*
X154638600Y-77652400D02*
X156975400Y-77652400D01*
X144399900Y-76128400D02*
X139070900Y-76128400D01*
D17*
X139048000Y-76230000D02*
X139043000Y-76225000D01*
D19*
X153216200Y-76230000D02*
X154638600Y-77652400D01*
%TO.N,LRCK:3*%
X144326200Y-83850000D02*
X153216200Y-83850000D01*
X144377000Y-83850000D02*
X139048000Y-83850000D01*
X139048000Y-83850000D02*
X139043000Y-83845000D01*
X156975400Y-85272400D02*
X158169200Y-86466200D01*
X154638600Y-85272400D02*
X156975400Y-85272400D01*
X153216200Y-83850000D02*
X154638600Y-85272400D01*
%TD*%
M02*
